<svg viewBox="0 0 547.93 547.93" xmlns="http://www.w3.org/2000/svg" data-name="Layer 1" id="Layer_1">
  <path d="m440.56,383.47c-60.48,0-109.51-49.03-109.51-109.51s49.03-109.51,109.51-109.51c53.1,0,97.37,37.8,107.38,87.96C537.49,117.84,430.11,10.45,295.53,0c50.15,10.02,87.94,54.28,87.94,107.37,0,60.48-49.03,109.51-109.51,109.51s-109.51-49.03-109.51-109.51C164.46,54.28,202.25,10.02,252.4,0,117.82,10.45,10.44,117.84,0,252.42c10.01-50.16,54.27-87.97,107.38-87.97,60.48,0,109.51,49.03,109.51,109.51s-49.03,109.51-109.51,109.51c-53.1,0-97.37-37.8-107.38-87.97,10.44,134.6,117.85,242,252.45,252.43-50.17-10-87.99-54.27-87.99-107.38,0-60.48,49.03-109.51,109.51-109.51s109.51,49.03,109.51,109.51c0,53.11-37.82,97.38-87.99,107.38,134.6-10.43,242.01-117.83,252.45-252.43-10.01,50.16-54.27,87.97-107.38,87.97Z"></path>
  <path d="m53.06,233.41h23.15l8.33,45.41,12.2-45.41h23.07l12.23,45.34,8.34-45.34h23.03l-17.39,81.11h-23.9l-13.83-51.06-13.78,51.06h-23.9l-17.55-81.11Z"></path>
  <path d="m397.65,233.41h55.45c9.24,0,16.34,1.94,21.29,5.81,4.95,3.87,7.42,8.67,7.42,14.38,0,4.79-1.77,8.91-5.3,12.34-2.35,2.29-5.8,4.09-10.33,5.42,6.89,1.4,11.96,3.81,15.2,7.22,3.25,3.41,4.87,7.7,4.87,12.86,0,4.2-1.16,7.99-3.47,11.34-2.31,3.36-5.47,6.01-9.48,7.97-2.48,1.22-6.23,2.1-11.25,2.66-6.67.74-11.09,1.11-13.27,1.11h-51.14v-81.11Zm29.88,31.81h12.88c4.62,0,7.84-.67,9.65-2.02,1.81-1.35,2.71-3.29,2.71-5.84,0-2.36-.9-4.2-2.71-5.53-1.81-1.33-4.96-1.99-9.45-1.99h-13.08v15.38Zm0,31.87h15.11c5.1,0,8.7-.77,10.79-2.3,2.09-1.53,3.14-3.59,3.14-6.17,0-2.4-1.04-4.32-3.11-5.78-2.07-1.46-5.7-2.19-10.89-2.19h-15.04v16.43Z"></path>
  <path d="m234.18,63.45h78.15v17.32h-48.92v12.89h45.38v16.54h-45.38v15.99h50.34v18.37h-79.56V63.45Z"></path>
  <path d="m234.97,396.29h47.21c10.28,0,17.98,2.16,23.1,6.47,5.12,4.32,7.68,10.46,7.68,18.42s-2.79,14.59-8.37,19.2-14.1,6.92-25.55,6.92h-15.55v30.1h-28.52v-81.11Zm28.52,34.58h6.96c5.48,0,9.32-.84,11.54-2.52,2.22-1.68,3.32-3.83,3.32-6.45s-.96-4.7-2.88-6.47-5.54-2.66-10.85-2.66h-8.09v18.09Z"></path>
</svg>